<svg xmlns="http://www.w3.org/2000/svg" viewBox="0 0 512 512" width="512" height="512">
  <defs>
    <linearGradient id="islamicGradient512" x1="0%" y1="0%" x2="100%" y2="100%">
      <stop offset="0%" style="stop-color:#1e3a8a;stop-opacity:1" />
      <stop offset="100%" style="stop-color:#16a34a;stop-opacity:1" />
    </linearGradient>
    <linearGradient id="bgGradient512" x1="0%" y1="0%" x2="100%" y2="100%">
      <stop offset="0%" style="stop-color:#1e40af;stop-opacity:1" />
      <stop offset="100%" style="stop-color:#3730a3;stop-opacity:1" />
    </linearGradient>
    <filter id="shadow" x="-50%" y="-50%" width="200%" height="200%">
      <feDropShadow dx="2" dy="2" stdDeviation="3" flood-opacity="0.2"/>
    </filter>
  </defs>

  <!-- Background circle with gradient -->
  <circle cx="256" cy="256" r="248" fill="url(#bgGradient512)" stroke="#fff" stroke-width="8" filter="url(#shadow)"/>

  <!-- Islamic geometric pattern - outer octagon -->
  <g transform="translate(256, 256)">
    <!-- Octagon frame -->
    <path d="M 100,-71 L 100,71 L 0,142 L -100,71 L -100,-71 L 0,-142 Z"
          fill="none" stroke="#fff" stroke-width="4" opacity="0.9"/>

    <!-- Second octagon layer -->
    <path d="M 80,-56.8 L 80,56.8 L 0,113.6 L -80,56.8 L -80,-56.8 L 0,-113.6 Z"
          fill="none" stroke="#fbbf24" stroke-width="2" opacity="0.7"/>

    <!-- Inner star pattern -->
    <path d="M 0,-120 L 35,-35 L 120,-20 L 40,30 L 60,120 L 0,70 L -60,120 L -40,30 L -120,-20 L -35,-35 Z"
          fill="url(#islamicGradient512)" stroke="#fff" stroke-width="3"/>

    <!-- Crescent moon -->
    <g transform="translate(-30, -20)">
      <circle cx="0" cy="0" r="45" fill="#fff"/>
      <circle cx="15" cy="-5" r="42" fill="url(#bgGradient512)"/>
    </g>

    <!-- Star -->
    <g transform="translate(40, -10)">
      <path d="M 0,-25 L 7,-8 L 25,-6 L 12,8 L 15,25 L 0,15 L -15,25 L -12,8 L -25,-6 L -7,-8 Z"
            fill="#fbbf24" stroke="#fff" stroke-width="2"/>
    </g>

    <!-- Decorative Arabic-style pattern elements -->
    <g opacity="0.8">
      <circle cx="0" cy="-180" r="12" fill="#fff"/>
      <circle cx="-127" cy="-127" r="12" fill="#fff"/>
      <circle cx="-180" cy="0" r="12" fill="#fff"/>
      <circle cx="-127" cy="127" r="12" fill="#fff"/>
      <circle cx="0" cy="180" r="12" fill="#fff"/>
      <circle cx="127" cy="127" r="12" fill="#fff"/>
      <circle cx="180" cy="0" r="12" fill="#fff"/>
      <circle cx="127" cy="-127" r="12" fill="#fff"/>

      <!-- Connecting lines -->
      <g stroke="#fff" stroke-width="1" opacity="0.4">
        <line x1="0" y1="-180" x2="127" y2="-127"/>
        <line x1="127" y1="-127" x2="180" y2="0"/>
        <line x1="180" y1="0" x2="127" y2="127"/>
        <line x1="127" y1="127" x2="0" y2="180"/>
        <line x1="0" y1="180" x2="-127" y2="127"/>
        <line x1="-127" y1="127" x2="-180" y2="0"/>
        <line x1="-180" y1="0" x2="-127" y2="-127"/>
        <line x1="-127" y1="-127" x2="0" y2="-180"/>
      </g>
    </g>

    <!-- Inner geometric details -->
    <g opacity="0.6">
      <path d="M 0,-60 L 52,-30 L 52,30 L 0,60 L -52,30 L -52,-30 Z"
            fill="none" stroke="#fff" stroke-width="2"/>
      <path d="M 0,-30 L 26,-15 L 26,15 L 0,30 L -26,15 L -26,-15 Z"
            fill="none" stroke="#fbbf24" stroke-width="1"/>
    </g>

    <!-- Additional decorative elements -->
    <g opacity="0.5">
      <circle cx="0" cy="-90" r="4" fill="#fff"/>
      <circle cx="63.6" cy="-63.6" r="4" fill="#fff"/>
      <circle cx="90" cy="0" r="4" fill="#fff"/>
      <circle cx="63.6" cy="63.6" r="4" fill="#fff"/>
      <circle cx="0" cy="90" r="4" fill="#fff"/>
      <circle cx="-63.6" cy="63.6" r="4" fill="#fff"/>
      <circle cx="-90" cy="0" r="4" fill="#fff"/>
      <circle cx="-63.6" cy="-63.6" r="4" fill="#fff"/>
    </g>
  </g>
</svg>