<svg xmlns="http://www.w3.org/2000/svg" viewBox="0 0 180 180" width="180" height="180">
  <defs>
    <linearGradient id="islamicGradient180" x1="0%" y1="0%" x2="100%" y2="100%">
      <stop offset="0%" style="stop-color:#1e3a8a;stop-opacity:1" />
      <stop offset="100%" style="stop-color:#16a34a;stop-opacity:1" />
    </linearGradient>
    <linearGradient id="bgGradient180" x1="0%" y1="0%" x2="100%" y2="100%">
      <stop offset="0%" style="stop-color:#1e40af;stop-opacity:1" />
      <stop offset="100%" style="stop-color:#3730a3;stop-opacity:1" />
    </linearGradient>
  </defs>

  <!-- Background with rounded corners for Apple touch icon -->
  <rect x="0" y="0" width="180" height="180" rx="40" ry="40" fill="url(#bgGradient180)"/>

  <!-- Islamic geometric pattern -->
  <g transform="translate(90, 90)">
    <!-- Octagon frame -->
    <path d="M 35.2,-25 L 35.2,25 L 0,50 L -35.2,25 L -35.2,-25 L 0,-50 Z"
          fill="none" stroke="#fff" stroke-width="2" opacity="0.9"/>

    <!-- Inner star pattern -->
    <path d="M 0,-42 L 12.3,-12.3 L 42,-7 L 14,10.5 L 21,42 L 0,24.5 L -21,42 L -14,10.5 L -42,-7 L -12.3,-12.3 Z"
          fill="url(#islamicGradient180)" stroke="#fff" stroke-width="1.5"/>

    <!-- Crescent moon -->
    <g transform="translate(-10.5, -7)">
      <circle cx="0" cy="0" r="15.8" fill="#fff"/>
      <circle cx="5.3" cy="-1.8" r="14.7" fill="url(#bgGradient180)"/>
    </g>

    <!-- Star -->
    <g transform="translate(14, -3.5)">
      <path d="M 0,-8.8 L 2.5,-2.8 L 8.8,-2.1 L 4.2,2.8 L 5.3,8.8 L 0,5.3 L -5.3,8.8 L -4.2,2.8 L -8.8,-2.1 L -2.5,-2.8 Z"
            fill="#fbbf24" stroke="#fff" stroke-width="0.8"/>
    </g>

    <!-- Decorative dots -->
    <g opacity="0.7">
      <circle cx="0" cy="-63" r="2.8" fill="#fff"/>
      <circle cx="-44.5" cy="-44.5" r="2.8" fill="#fff"/>
      <circle cx="-63" cy="0" r="2.8" fill="#fff"/>
      <circle cx="-44.5" cy="44.5" r="2.8" fill="#fff"/>
      <circle cx="0" cy="63" r="2.8" fill="#fff"/>
      <circle cx="44.5" cy="44.5" r="2.8" fill="#fff"/>
      <circle cx="63" cy="0" r="2.8" fill="#fff"/>
      <circle cx="44.5" cy="-44.5" r="2.8" fill="#fff"/>
    </g>

    <!-- Inner geometric details -->
    <g opacity="0.5">
      <path d="M 0,-21 L 18.2,-10.5 L 18.2,10.5 L 0,21 L -18.2,10.5 L -18.2,-10.5 Z"
            fill="none" stroke="#fff" stroke-width="1"/>
    </g>
  </g>
</svg>