<svg xmlns="http://www.w3.org/2000/svg" viewBox="0 0 32 32" width="32" height="32">
  <defs>
    <linearGradient id="islamicGradient32" x1="0%" y1="0%" x2="100%" y2="100%">
      <stop offset="0%" style="stop-color:#1e3a8a;stop-opacity:1" />
      <stop offset="100%" style="stop-color:#16a34a;stop-opacity:1" />
    </linearGradient>
    <linearGradient id="bgGradient32" x1="0%" y1="0%" x2="100%" y2="100%">
      <stop offset="0%" style="stop-color:#1e40af;stop-opacity:1" />
      <stop offset="100%" style="stop-color:#3730a3;stop-opacity:1" />
    </linearGradient>
  </defs>

  <!-- Background -->
  <rect x="0" y="0" width="32" height="32" rx="6" ry="6" fill="url(#bgGradient32)"/>

  <!-- Simplified Islamic design for small size -->
  <g transform="translate(16, 16)">
    <!-- Crescent moon -->
    <g transform="translate(-2, -1)">
      <circle cx="0" cy="0" r="7" fill="#fff"/>
      <circle cx="2.3" cy="-0.8" r="6.5" fill="url(#bgGradient32)"/>
    </g>

    <!-- Small star -->
    <g transform="translate(5, 0)">
      <path d="M 0,-3 L 0.7,-0.9 L 2.9,-0.7 L 1.1,0.8 L 1.4,2.9 L 0,1.6 L -1.4,2.9 L -1.1,0.8 L -2.9,-0.7 L -0.7,-0.9 Z"
            fill="#fbbf24"/>
    </g>

    <!-- Decorative corners -->
    <g opacity="0.6">
      <circle cx="-8" cy="-8" r="1" fill="#fff"/>
      <circle cx="8" cy="-8" r="1" fill="#fff"/>
      <circle cx="-8" cy="8" r="1" fill="#fff"/>
      <circle cx="8" cy="8" r="1" fill="#fff"/>
    </g>
  </g>
</svg>