<svg xmlns="http://www.w3.org/2000/svg" viewBox="0 0 512 512" width="512" height="512">
  <defs>
    <linearGradient id="islamicGradient" x1="0%" y1="0%" x2="100%" y2="100%">
      <stop offset="0%" style="stop-color:#1e3a8a;stop-opacity:1" />
      <stop offset="100%" style="stop-color:#16a34a;stop-opacity:1" />
    </linearGradient>
    <linearGradient id="bgGradient" x1="0%" y1="0%" x2="100%" y2="100%">
      <stop offset="0%" style="stop-color:#1e40af;stop-opacity:1" />
      <stop offset="100%" style="stop-color:#3730a3;stop-opacity:1" />
    </linearGradient>
  </defs>

  <!-- Background circle with gradient -->
  <circle cx="256" cy="256" r="250" fill="url(#bgGradient)" stroke="#fff" stroke-width="8"/>

  <!-- Islamic geometric pattern - outer octagon -->
  <g transform="translate(256, 256)">
    <!-- Octagon frame -->
    <path d="M 100,-71 L 100,71 L 0,142 L -100,71 L -100,-71 L 0,-142 Z"
          fill="none" stroke="#fff" stroke-width="3" opacity="0.8"/>

    <!-- Inner star pattern -->
    <path d="M 0,-120 L 35,-35 L 120,-20 L 40,30 L 60,120 L 0,70 L -60,120 L -40,30 L -120,-20 L -35,-35 Z"
          fill="url(#islamicGradient)" stroke="#fff" stroke-width="2"/>

    <!-- Crescent moon -->
    <g transform="translate(-30, -20)">
      <circle cx="0" cy="0" r="45" fill="#fff"/>
      <circle cx="15" cy="-5" r="42" fill="url(#bgGradient)"/>
    </g>

    <!-- Star -->
    <g transform="translate(40, -10)">
      <path d="M 0,-25 L 7,-8 L 25,-6 L 12,8 L 15,25 L 0,15 L -15,25 L -12,8 L -25,-6 L -7,-8 Z"
            fill="#fbbf24" stroke="#fff" stroke-width="1"/>
    </g>

    <!-- Decorative Arabic-style pattern elements -->
    <g opacity="0.6">
      <circle cx="0" cy="-180" r="8" fill="#fff"/>
      <circle cx="-127" cy="-127" r="8" fill="#fff"/>
      <circle cx="-180" cy="0" r="8" fill="#fff"/>
      <circle cx="-127" cy="127" r="8" fill="#fff"/>
      <circle cx="0" cy="180" r="8" fill="#fff"/>
      <circle cx="127" cy="127" r="8" fill="#fff"/>
      <circle cx="180" cy="0" r="8" fill="#fff"/>
      <circle cx="127" cy="-127" r="8" fill="#fff"/>
    </g>

    <!-- Inner geometric details -->
    <g opacity="0.4">
      <path d="M 0,-60 L 52,-30 L 52,30 L 0,60 L -52,30 L -52,-30 Z"
            fill="none" stroke="#fff" stroke-width="1"/>
    </g>
  </g>
</svg>