<svg xmlns="http://www.w3.org/2000/svg" viewBox="0 0 512 512" width="512" height="512">
  <defs>
    <linearGradient id="islamicGradientMasked" x1="0%" y1="0%" x2="100%" y2="100%">
      <stop offset="0%" style="stop-color:#1e3a8a;stop-opacity:1" />
      <stop offset="100%" style="stop-color:#16a34a;stop-opacity:1" />
    </linearGradient>
    <linearGradient id="bgGradientMasked" x1="0%" y1="0%" x2="100%" y2="100%">
      <stop offset="0%" style="stop-color:#1e40af;stop-opacity:1" />
      <stop offset="100%" style="stop-color:#3730a3;stop-opacity:1" />
    </linearGradient>
  </defs>

  <!-- Safe zone for masked icons (circular mask area) -->
  <circle cx="256" cy="256" r="230" fill="url(#bgGradientMasked)"/>

  <!-- Islamic design optimized for circular mask -->
  <g transform="translate(256, 256)">
    <!-- Simplified octagon for better mask compatibility -->
    <path d="M 92.5,-65.4 L 92.5,65.4 L 0,130.8 L -92.5,65.4 L -92.5,-65.4 L 0,-130.8 Z"
          fill="none" stroke="#fff" stroke-width="3" opacity="0.8"/>

    <!-- Star pattern -->
    <path d="M 0,-110 L 32,-32 L 110,-18 L 36,27 L 55,110 L 0,64 L -55,110 L -36,27 L -110,-18 L -32,-32 Z"
          fill="url(#islamicGradientMasked)" stroke="#fff" stroke-width="2"/>

    <!-- Crescent moon centered -->
    <g transform="translate(-25, -18)">
      <circle cx="0" cy="0" r="41" fill="#fff"/>
      <circle cx="13.7" cy="-4.6" r="38.3" fill="url(#bgGradientMasked)"/>
    </g>

    <!-- Star -->
    <g transform="translate(33, -9)">
      <path d="M 0,-23 L 6.4,-7.3 L 23,-5.5 L 11,7.3 L 13.7,23 L 0,13.7 L -13.7,23 L -11,7.3 L -23,-5.5 L -6.4,-7.3 Z"
            fill="#fbbf24" stroke="#fff" stroke-width="1"/>
    </g>

    <!-- Outer ring for mask boundary -->
    <circle cx="0" cy="0" r="225" fill="none" stroke="#fff" stroke-width="1" opacity="0.3"/>
  </g>
</svg>