<svg xmlns="http://www.w3.org/2000/svg" viewBox="0 0 192 192" width="192" height="192">
  <defs>
    <linearGradient id="islamicGradient192" x1="0%" y1="0%" x2="100%" y2="100%">
      <stop offset="0%" style="stop-color:#1e3a8a;stop-opacity:1" />
      <stop offset="100%" style="stop-color:#16a34a;stop-opacity:1" />
    </linearGradient>
    <linearGradient id="bgGradient192" x1="0%" y1="0%" x2="100%" y2="100%">
      <stop offset="0%" style="stop-color:#1e40af;stop-opacity:1" />
      <stop offset="100%" style="stop-color:#3730a3;stop-opacity:1" />
    </linearGradient>
  </defs>

  <!-- Background circle with gradient -->
  <circle cx="96" cy="96" r="88" fill="url(#bgGradient192)" stroke="#fff" stroke-width="4"/>

  <!-- Islamic geometric pattern - outer octagon -->
  <g transform="translate(96, 96)">
    <!-- Octagon frame -->
    <path d="M 37.5,-26.6 L 37.5,26.6 L 0,53.2 L -37.5,26.6 L -37.5,-26.6 L 0,-53.2 Z"
          fill="none" stroke="#fff" stroke-width="2" opacity="0.8"/>

    <!-- Inner star pattern -->
    <path d="M 0,-45 L 13.1,-13.1 L 45,-7.5 L 15,11.2 L 22.5,45 L 0,26.2 L -22.5,45 L -15,11.2 L -45,-7.5 L -13.1,-13.1 Z"
          fill="url(#islamicGradient192)" stroke="#fff" stroke-width="1"/>

    <!-- Crescent moon -->
    <g transform="translate(-11, -7.5)">
      <circle cx="0" cy="0" r="17" fill="#fff"/>
      <circle cx="5.6" cy="-1.9" r="15.8" fill="url(#bgGradient192)"/>
    </g>

    <!-- Star -->
    <g transform="translate(15, -3.7)">
      <path d="M 0,-9.4 L 2.6,-3 L 9.4,-2.2 L 4.5,3 L 5.6,9.4 L 0,5.6 L -5.6,9.4 L -4.5,3 L -9.4,-2.2 L -2.6,-3 Z"
            fill="#fbbf24" stroke="#fff" stroke-width="0.5"/>
    </g>

    <!-- Decorative Arabic-style pattern elements -->
    <g opacity="0.6">
      <circle cx="0" cy="-67.5" r="3" fill="#fff"/>
      <circle cx="-47.7" cy="-47.7" r="3" fill="#fff"/>
      <circle cx="-67.5" cy="0" r="3" fill="#fff"/>
      <circle cx="-47.7" cy="47.7" r="3" fill="#fff"/>
      <circle cx="0" cy="67.5" r="3" fill="#fff"/>
      <circle cx="47.7" cy="47.7" r="3" fill="#fff"/>
      <circle cx="67.5" cy="0" r="3" fill="#fff"/>
      <circle cx="47.7" cy="-47.7" r="3" fill="#fff"/>
    </g>

    <!-- Inner geometric details -->
    <g opacity="0.4">
      <path d="M 0,-22.5 L 19.5,-11.2 L 19.5,11.2 L 0,22.5 L -19.5,11.2 L -19.5,-11.2 Z"
            fill="none" stroke="#fff" stroke-width="0.5"/>
    </g>
  </g>
</svg>